<mxfile host="app.diagrams.net" modified="2024-04-12T16:03:11.238Z" agent="Mozilla/5.0 (Windows NT 10.0; Win64; x64) AppleWebKit/537.36 (KHTML, like Gecko) Chrome/123.0.0.0 Safari/537.36" etag="yGNW9xCZJwUgn2yJI_eq" version="24.2.3" type="device">
  <diagram id="bfEUAUZU98dtGD4wmixz" name="Pagina-2">
    <mxGraphModel dx="2361" dy="310" grid="1" gridSize="10" guides="1" tooltips="1" connect="1" arrows="1" fold="1" page="1" pageScale="1" pageWidth="1500" pageHeight="500" math="1" shadow="0">
      <root>
        <mxCell id="0" />
        <mxCell id="1" parent="0" />
        <mxCell id="bA8TvvzVUHIhodrGQxpy-5" style="edgeStyle=orthogonalEdgeStyle;rounded=0;orthogonalLoop=1;jettySize=auto;html=1;exitX=0.5;exitY=0;exitDx=0;exitDy=0;entryX=0.5;entryY=1;entryDx=0;entryDy=0;strokeWidth=2;" edge="1" parent="1" source="-h7lyCNhhGskn2blZmPC-38" target="-h7lyCNhhGskn2blZmPC-29">
          <mxGeometry relative="1" as="geometry" />
        </mxCell>
        <mxCell id="-h7lyCNhhGskn2blZmPC-38" value="" style="rounded=1;whiteSpace=wrap;html=1;strokeWidth=2;fillColor=#f5f5f5;fontColor=#333333;strokeColor=default;" vertex="1" parent="1">
          <mxGeometry x="350" y="180" width="180" height="180" as="geometry" />
        </mxCell>
        <mxCell id="bA8TvvzVUHIhodrGQxpy-4" style="edgeStyle=orthogonalEdgeStyle;rounded=0;orthogonalLoop=1;jettySize=auto;html=1;exitX=0.5;exitY=0;exitDx=0;exitDy=0;strokeWidth=2;" edge="1" parent="1" source="-h7lyCNhhGskn2blZmPC-36" target="-h7lyCNhhGskn2blZmPC-38">
          <mxGeometry relative="1" as="geometry" />
        </mxCell>
        <mxCell id="-h7lyCNhhGskn2blZmPC-36" value="" style="rounded=1;whiteSpace=wrap;html=1;strokeWidth=2;fillColor=#f5f5f5;fontColor=#333333;strokeColor=default;" vertex="1" parent="1">
          <mxGeometry x="320" y="385" width="240" height="50" as="geometry" />
        </mxCell>
        <mxCell id="-h7lyCNhhGskn2blZmPC-34" value="" style="rounded=1;whiteSpace=wrap;html=1;strokeWidth=2;fillColor=#f5f5f5;fontColor=#333333;strokeColor=default;" vertex="1" parent="1">
          <mxGeometry x="10" y="155" width="260" height="50" as="geometry" />
        </mxCell>
        <mxCell id="bA8TvvzVUHIhodrGQxpy-1" style="edgeStyle=orthogonalEdgeStyle;rounded=0;orthogonalLoop=1;jettySize=auto;html=1;exitX=0.5;exitY=0;exitDx=0;exitDy=0;entryX=0.5;entryY=1;entryDx=0;entryDy=0;strokeWidth=2;" edge="1" parent="1" source="-h7lyCNhhGskn2blZmPC-30" target="-h7lyCNhhGskn2blZmPC-32">
          <mxGeometry relative="1" as="geometry" />
        </mxCell>
        <mxCell id="-h7lyCNhhGskn2blZmPC-30" value="" style="rounded=1;whiteSpace=wrap;html=1;strokeWidth=2;fillColor=#f5f5f5;fontColor=#333333;strokeColor=default;" vertex="1" parent="1">
          <mxGeometry x="10" y="385" width="260" height="50" as="geometry" />
        </mxCell>
        <mxCell id="bA8TvvzVUHIhodrGQxpy-3" style="edgeStyle=orthogonalEdgeStyle;rounded=0;orthogonalLoop=1;jettySize=auto;html=1;exitX=0.5;exitY=0;exitDx=0;exitDy=0;entryX=0.5;entryY=1;entryDx=0;entryDy=0;strokeWidth=2;" edge="1" parent="1" source="-h7lyCNhhGskn2blZmPC-32" target="-h7lyCNhhGskn2blZmPC-34">
          <mxGeometry relative="1" as="geometry" />
        </mxCell>
        <mxCell id="-h7lyCNhhGskn2blZmPC-32" value="" style="rounded=1;whiteSpace=wrap;html=1;strokeWidth=2;fillColor=#f5f5f5;fontColor=#333333;strokeColor=default;" vertex="1" parent="1">
          <mxGeometry x="50" y="230" width="180" height="130" as="geometry" />
        </mxCell>
        <mxCell id="-h7lyCNhhGskn2blZmPC-6" value="" style="rounded=1;whiteSpace=wrap;html=1;fontSize=18;fillColor=#f8cecc;strokeColor=default;strokeWidth=2;" vertex="1" parent="1">
          <mxGeometry x="20" y="400" width="40" height="20" as="geometry" />
        </mxCell>
        <mxCell id="-h7lyCNhhGskn2blZmPC-7" value="" style="rounded=1;whiteSpace=wrap;html=1;fontSize=18;fillColor=#f8cecc;strokeColor=default;strokeWidth=2;" vertex="1" parent="1">
          <mxGeometry x="70" y="400" width="40" height="20" as="geometry" />
        </mxCell>
        <mxCell id="-h7lyCNhhGskn2blZmPC-8" value="" style="rounded=1;whiteSpace=wrap;html=1;fontSize=18;fillColor=#f8cecc;strokeColor=default;strokeWidth=2;" vertex="1" parent="1">
          <mxGeometry x="120" y="400" width="40" height="20" as="geometry" />
        </mxCell>
        <mxCell id="-h7lyCNhhGskn2blZmPC-9" value="" style="rounded=1;whiteSpace=wrap;html=1;fontSize=18;fillColor=#f8cecc;strokeColor=default;strokeWidth=2;" vertex="1" parent="1">
          <mxGeometry x="170" y="400" width="40" height="20" as="geometry" />
        </mxCell>
        <mxCell id="-h7lyCNhhGskn2blZmPC-10" value="" style="rounded=1;whiteSpace=wrap;html=1;fontSize=18;fillColor=#f8cecc;strokeColor=default;strokeWidth=2;" vertex="1" parent="1">
          <mxGeometry x="220" y="400" width="40" height="20" as="geometry" />
        </mxCell>
        <mxCell id="-h7lyCNhhGskn2blZmPC-11" value="MHA" style="rounded=1;whiteSpace=wrap;html=1;fontSize=18;strokeWidth=2;fillColor=#dae8fc;strokeColor=default;" vertex="1" parent="1">
          <mxGeometry x="75" y="300" width="130" height="40" as="geometry" />
        </mxCell>
        <mxCell id="-h7lyCNhhGskn2blZmPC-13" value="MLP" style="rounded=1;whiteSpace=wrap;html=1;fontSize=18;strokeWidth=2;fillColor=#dae8fc;strokeColor=default;" vertex="1" parent="1">
          <mxGeometry x="75" y="250" width="130" height="40" as="geometry" />
        </mxCell>
        <mxCell id="-h7lyCNhhGskn2blZmPC-14" value="" style="rounded=1;whiteSpace=wrap;html=1;fontSize=18;fillColor=#d5e8d4;strokeColor=default;strokeWidth=2;" vertex="1" parent="1">
          <mxGeometry x="20" y="170" width="40" height="20" as="geometry" />
        </mxCell>
        <mxCell id="-h7lyCNhhGskn2blZmPC-15" value="" style="rounded=1;whiteSpace=wrap;html=1;fontSize=18;fillColor=#d5e8d4;strokeColor=default;strokeWidth=2;" vertex="1" parent="1">
          <mxGeometry x="70" y="170" width="40" height="20" as="geometry" />
        </mxCell>
        <mxCell id="-h7lyCNhhGskn2blZmPC-16" value="" style="rounded=1;whiteSpace=wrap;html=1;fontSize=18;fillColor=#d5e8d4;strokeColor=default;strokeWidth=2;" vertex="1" parent="1">
          <mxGeometry x="120" y="170" width="40" height="20" as="geometry" />
        </mxCell>
        <mxCell id="-h7lyCNhhGskn2blZmPC-17" value="" style="rounded=1;whiteSpace=wrap;html=1;fontSize=18;fillColor=#d5e8d4;strokeColor=default;strokeWidth=2;" vertex="1" parent="1">
          <mxGeometry x="170" y="170" width="40" height="20" as="geometry" />
        </mxCell>
        <mxCell id="-h7lyCNhhGskn2blZmPC-28" style="edgeStyle=orthogonalEdgeStyle;rounded=0;orthogonalLoop=1;jettySize=auto;html=1;entryX=0;entryY=0.5;entryDx=0;entryDy=0;strokeWidth=2;" edge="1" parent="1" target="-h7lyCNhhGskn2blZmPC-20">
          <mxGeometry relative="1" as="geometry">
            <mxPoint x="270" y="180" as="sourcePoint" />
          </mxGeometry>
        </mxCell>
        <mxCell id="-h7lyCNhhGskn2blZmPC-18" value="" style="rounded=1;whiteSpace=wrap;html=1;fontSize=18;fillColor=#d5e8d4;strokeColor=default;strokeWidth=2;" vertex="1" parent="1">
          <mxGeometry x="220" y="170" width="40" height="20" as="geometry" />
        </mxCell>
        <mxCell id="-h7lyCNhhGskn2blZmPC-19" value="Causal MHA" style="rounded=1;whiteSpace=wrap;html=1;fontSize=18;strokeWidth=2;fillColor=#dae8fc;strokeColor=default;" vertex="1" parent="1">
          <mxGeometry x="375" y="300" width="130" height="40" as="geometry" />
        </mxCell>
        <mxCell id="-h7lyCNhhGskn2blZmPC-20" value="Cross&lt;b&gt;&amp;nbsp;&lt;/b&gt;MHA" style="rounded=1;whiteSpace=wrap;html=1;fontSize=18;strokeWidth=2;fillColor=#dae8fc;strokeColor=default;" vertex="1" parent="1">
          <mxGeometry x="375" y="250" width="130" height="40" as="geometry" />
        </mxCell>
        <mxCell id="-h7lyCNhhGskn2blZmPC-21" value="MLP" style="rounded=1;whiteSpace=wrap;html=1;fontSize=18;strokeWidth=2;fillColor=#dae8fc;strokeColor=default;" vertex="1" parent="1">
          <mxGeometry x="375" y="200" width="130" height="40" as="geometry" />
        </mxCell>
        <mxCell id="-h7lyCNhhGskn2blZmPC-22" value="&lt;font style=&quot;font-size: 10px;&quot;&gt;[BOS]&lt;/font&gt;" style="rounded=1;whiteSpace=wrap;html=1;fontSize=18;strokeWidth=2;verticalAlign=bottom;fillColor=#f8cecc;strokeColor=default;" vertex="1" parent="1">
          <mxGeometry x="340" y="400" width="40" height="20" as="geometry" />
        </mxCell>
        <mxCell id="-h7lyCNhhGskn2blZmPC-24" value="" style="rounded=1;whiteSpace=wrap;html=1;fontSize=18;strokeWidth=2;verticalAlign=bottom;fillColor=#f8cecc;strokeColor=default;opacity=30;" vertex="1" parent="1">
          <mxGeometry x="390" y="400" width="40" height="20" as="geometry" />
        </mxCell>
        <mxCell id="-h7lyCNhhGskn2blZmPC-26" value="" style="rounded=1;whiteSpace=wrap;html=1;fontSize=18;strokeWidth=2;verticalAlign=bottom;fillColor=#f8cecc;strokeColor=default;opacity=30;" vertex="1" parent="1">
          <mxGeometry x="440" y="400" width="40" height="20" as="geometry" />
        </mxCell>
        <mxCell id="-h7lyCNhhGskn2blZmPC-27" value="" style="rounded=1;whiteSpace=wrap;html=1;fontSize=18;strokeWidth=2;verticalAlign=bottom;fillColor=#f8cecc;strokeColor=default;opacity=30;" vertex="1" parent="1">
          <mxGeometry x="490" y="400" width="40" height="20" as="geometry" />
        </mxCell>
        <mxCell id="-h7lyCNhhGskn2blZmPC-29" value="" style="rounded=1;whiteSpace=wrap;html=1;fontSize=18;strokeWidth=2;verticalAlign=bottom;fillColor=#f8cecc;strokeColor=default;" vertex="1" parent="1">
          <mxGeometry x="420" y="135" width="40" height="20" as="geometry" />
        </mxCell>
        <mxCell id="-h7lyCNhhGskn2blZmPC-31" value="Input sequence" style="text;html=1;align=left;verticalAlign=middle;whiteSpace=wrap;rounded=0;" vertex="1" parent="1">
          <mxGeometry x="10" y="435" width="90" height="30" as="geometry" />
        </mxCell>
        <mxCell id="-h7lyCNhhGskn2blZmPC-33" value="&lt;div style=&quot;text-align: right;&quot;&gt;&lt;span style=&quot;background-color: initial;&quot;&gt;Encoder block (&lt;/span&gt;&lt;i style=&quot;background-color: initial;&quot;&gt;n&lt;/i&gt;&lt;span style=&quot;background-color: initial;&quot;&gt;&amp;nbsp;times)&lt;/span&gt;&lt;/div&gt;" style="text;html=1;align=left;verticalAlign=middle;whiteSpace=wrap;rounded=0;" vertex="1" parent="1">
          <mxGeometry x="-50" y="280" width="90" height="30" as="geometry" />
        </mxCell>
        <mxCell id="-h7lyCNhhGskn2blZmPC-35" value="Encoder output" style="text;html=1;align=left;verticalAlign=middle;whiteSpace=wrap;rounded=0;" vertex="1" parent="1">
          <mxGeometry x="10" y="125" width="90" height="30" as="geometry" />
        </mxCell>
        <mxCell id="-h7lyCNhhGskn2blZmPC-37" value="Output sequence" style="text;html=1;align=left;verticalAlign=middle;whiteSpace=wrap;rounded=0;" vertex="1" parent="1">
          <mxGeometry x="320" y="435" width="100" height="30" as="geometry" />
        </mxCell>
        <mxCell id="-h7lyCNhhGskn2blZmPC-39" value="&lt;div style=&quot;&quot;&gt;&lt;span style=&quot;background-color: initial;&quot;&gt;Decoder block (&lt;/span&gt;&lt;i style=&quot;background-color: initial;&quot;&gt;m&lt;/i&gt;&lt;span style=&quot;background-color: initial;&quot;&gt;&amp;nbsp;times)&lt;/span&gt;&lt;/div&gt;" style="text;html=1;align=left;verticalAlign=middle;whiteSpace=wrap;rounded=0;" vertex="1" parent="1">
          <mxGeometry x="541" y="255" width="90" height="30" as="geometry" />
        </mxCell>
        <mxCell id="-h7lyCNhhGskn2blZmPC-40" value="Predicted next output token" style="text;html=1;align=left;verticalAlign=middle;whiteSpace=wrap;rounded=0;" vertex="1" parent="1">
          <mxGeometry x="480" y="127.5" width="90" height="35" as="geometry" />
        </mxCell>
      </root>
    </mxGraphModel>
  </diagram>
</mxfile>
